<svg width="25" height="25" viewBox="0 0 25 25" fill="none" xmlns="http://www.w3.org/2000/svg">
<path d="M20.8498 25H4.1502C1.85771 25 0 23.1423 0 20.8498V4.1502C0 1.85771 1.85771 0 4.1502 0H20.8498C23.1423 0 25 1.85771 25 4.1502V20.8498C25 23.1423 23.1423 25 20.8498 25Z" fill="#BC0063"/>
<path d="M5.70654 18.3694L7.07018 15.7855C8.39429 16.7588 10.1285 17.2924 11.8478 17.2924C13.6858 17.2924 14.8469 16.6501 14.8469 15.5977C14.8469 13.2805 7.67295 14.5206 7.67295 9.91095C7.67295 6.9317 10.2767 5.00977 14.2886 5.00977C16.2303 5.00977 18.0287 5.44455 19.2935 6.24988L18.0336 8.81411C16.9368 8.06807 15.5336 7.69751 14.1058 7.69751C12.1641 7.69751 11.0277 8.44356 11.0277 9.47617C11.0079 11.8527 18.2016 10.6125 18.2016 15.0592C18.2016 18.0582 15.5534 19.9801 11.5218 19.9801C9.1601 19.9851 6.9269 19.2835 5.70654 18.3694Z" fill="white"/>
</svg>
